<?xml version="1.0" encoding="UTF-8"?>
<svg id="_Шар_1" data-name="Шар 1" xmlns="http://www.w3.org/2000/svg" viewBox="0 0 822.02 217.53">
  <defs>
    <style>
      .cls-1 {
        fill: #fff;
      }

      .cls-2 {
        fill: #15ab5a;
      }
    </style>
  </defs>
  <g>
    <path class="cls-1" d="m252.2,164.5l22.27-78.71h-39.59l7.49-26.86h97.67l-7.49,26.86h-33.55l-22.27,78.71h-24.52Z"/>
    <path class="cls-1" d="m294.36,164.5l.2-.78,68.43-104.79h35.52l9.56,104.79-.2.78h-25l-6.24-83.98h-.6l-53.8,83.98h-27.87Zm16.04-20.8l17.65-23.44h38.87l-2.46,23.44h-54.07Z"/>
    <path class="cls-1" d="m506.33,164.5l.2-.78,68.43-104.01h35.52l9.56,104.01-.2.78h-25l-6.24-83.98h-.6l-53.8,83.98h-27.87Zm16.04-20.8l17.65-23.44h38.87l-2.46,23.44h-54.07Z"/>
    <path class="cls-1" d="m708.31,164.5l.2-.78,68.43-104.79h35.52l9.56,104.79-.2.78h-25l-6.24-83.98h-.6l-53.8,83.98h-27.87Zm16.04-20.8l17.65-23.44h38.87l-2.46,23.44h-54.07Z"/>
    <path class="cls-1" d="m405.5,164.5l29.75-105.56h64.47c7.81,0,13.94,1.42,18.39,4.27,4.44,2.85,7.2,6.96,8.27,12.34,1.07,5.38.48,11.95-1.77,19.72-2.14,7.45-4.95,13.56-8.44,18.32-3.49,4.76-7.93,8.33-13.33,10.71-5.39,2.38-11.92,3.57-19.57,3.57h-42.94l-10.31,36.64h-24.52Zm41.11-58.84h49.28l6.28-22.2h-49.28l-6.28,22.2Zm28.98,58.84l-25.37-47.66,29.85-.62,26.34,47.5-.2.78h-30.62Z"/>
    <path class="cls-1" d="m609.4,164.5l.22-.93,50.14-53.71-18.06-50.14h26.61l12.93,33.53h0l31.24-33.53h30.98-.2l-47.32,50.76,32.08,95.37-.22.93h-27.63l-25.09-78.76h-.72l-33.26,36.48h-31.7Z"/>
  </g>
  <g>
    <polygon class="cls-2" points="120.21 0 120.21 66.05 102.89 66.05 85.56 66.05 85.56 0 120.21 0"/>
    <polygon class="cls-1" points="205.74 148.15 188.41 178.16 120.21 138.79 120.21 217.53 85.56 217.53 85.56 138.79 17.36 178.16 0 148.15 68.2 108.78 85.56 98.74 102.89 88.74 120.21 98.78 137.54 108.78 205.74 148.15"/>
    <polygon class="cls-2" points="205.74 69.41 165.05 92.43 130.4 72.42 188.41 39.37 205.74 69.41"/>
    <polygon class="cls-2" points="74.17 72.42 39.48 92.43 0 69.41 17.36 39.37 74.17 72.42"/>
  </g>
</svg>